<svg width="150" height="150" viewBox="0 0 150 150" fill="none" xmlns="http://www.w3.org/2000/svg">
<path d="M120 84C124.971 84 129 79.9706 129 75C129 70.0294 124.971 66 120 66C115.029 66 111 70.0294 111 75C111 79.9706 115.029 84 120 84Z" fill="white"/>
<path d="M100.456 113.184C103.971 116.698 109.669 116.698 113.184 113.184C116.698 109.669 116.698 103.971 113.184 100.456C109.669 96.9411 103.971 96.9411 100.456 100.456C96.9411 103.971 96.9411 109.669 100.456 113.184Z" fill="white" fill-opacity="0.875"/>
<path d="M66 120C66 124.971 70.0294 129 75 129C79.9706 129 84 124.971 84 120C84 115.029 79.9706 111 75 111C70.0294 111 66 115.029 66 120Z" fill="white" fill-opacity="0.75"/>
<path d="M36.8163 100.456C33.3015 103.971 33.3015 109.669 36.8163 113.184C40.331 116.698 46.0295 116.698 49.5442 113.184C53.0589 109.669 53.0589 103.971 49.5442 100.456C46.0295 96.9411 40.331 96.9411 36.8163 100.456Z" fill="white" fill-opacity="0.625"/>
<path d="M30 66C25.0294 66 21 70.0294 21 75C21 79.9706 25.0294 84 30 84C34.9706 84 39 79.9706 39 75C39 70.0294 34.9706 66 30 66Z" fill="white" fill-opacity="0.5"/>
<path d="M49.5441 36.8162C46.0294 33.3015 40.3309 33.3015 36.8162 36.8162C33.3015 40.331 33.3015 46.0294 36.8162 49.5442C40.3309 53.0589 46.0294 53.0589 49.5441 49.5442C53.0589 46.0294 53.0589 40.331 49.5441 36.8162Z" fill="white" fill-opacity="0.375"/>
<path d="M84 30C84 25.0294 79.9706 21 75 21C70.0294 21 66 25.0294 66 30C66 34.9706 70.0294 39 75 39C79.9706 39 84 34.9706 84 30Z" fill="white" fill-opacity="0.25"/>
<path d="M113.184 49.5442C116.698 46.0294 116.698 40.3309 113.184 36.8162C109.669 33.3015 103.971 33.3015 100.456 36.8162C96.9411 40.3309 96.9411 46.0294 100.456 49.5442C103.971 53.0589 109.669 53.0589 113.184 49.5442Z" fill="white" fill-opacity="0.125"/>
</svg>
